HIERARCHY
ROOT Hips
{
	OFFSET 53.644402 -1.666544 84.670303
	CHANNELS 6 Xposition Yposition Zposition Xrotation Yrotation Zrotation
	JOINT spine
	{
		OFFSET 0.000000 -0.342408 5.954376
		CHANNELS 3 Xrotation Yrotation Zrotation
		JOINT spine1
		{
			OFFSET 0.000000 -0.000001 8.856018
			CHANNELS 3 Xrotation Yrotation Zrotation
			JOINT spine2
			{
				OFFSET 0.000000 -0.000001 8.485672
				CHANNELS 3 Xrotation Yrotation Zrotation
				JOINT Neck
				{
					OFFSET 0.000000 -1.038704 21.786301
					CHANNELS 3 Xrotation Yrotation Zrotation
					JOINT Head
					{
						OFFSET 0.000000 -0.000001 6.582199
						CHANNELS 3 Xrotation Yrotation Zrotation
						End Site
						{
							OFFSET 0.000000 5.254357 15.932602
						}
					}
				}
				JOINT RightShoulder
				{
					OFFSET -3.573071 0.497524 9.163864
					CHANNELS 3 Xrotation Yrotation Zrotation
					JOINT RightArm
					{
						OFFSET 0.000000 -0.000002 12.019196
						CHANNELS 3 Xrotation Yrotation Zrotation
						JOINT RightArmRoll
						{
							OFFSET 0.000000 -0.000001 6.067551
							CHANNELS 3 Xrotation Yrotation Zrotation
							JOINT RightForeArm
							{
								OFFSET 0.000000 -0.000003 17.672607
								CHANNELS 3 Xrotation Yrotation Zrotation
								JOINT RightForeArmRoll
								{
									OFFSET 0.000000 -0.000001 6.808716
									CHANNELS 3 Xrotation Yrotation Zrotation
									JOINT RightHand
									{
										OFFSET 0.000000 -0.000002 13.663605
										CHANNELS 3 Xrotation Yrotation Zrotation
										End Site
										{
											OFFSET 0.000000 0.000000 0.100006
										}
									}
								}
							}
						}
					}
				}
				JOINT LeftShoulder
				{
					OFFSET 3.573071 0.497524 9.163864
					CHANNELS 3 Xrotation Yrotation Zrotation
					JOINT LeftArm
					{
						OFFSET 0.000000 -0.000002 12.019196
						CHANNELS 3 Xrotation Yrotation Zrotation
						JOINT LeftArmRoll
						{
							OFFSET 0.000000 -0.000001 6.067551
							CHANNELS 3 Xrotation Yrotation Zrotation
							JOINT LeftForeArm
							{
								OFFSET 0.000000 -0.000003 17.672607
								CHANNELS 3 Xrotation Yrotation Zrotation
								JOINT LeftForeArmRoll
								{
									OFFSET 0.000000 -0.000001 6.808716
									CHANNELS 3 Xrotation Yrotation Zrotation
									JOINT LeftHand
									{
										OFFSET 0.000000 -0.000002 13.663605
										CHANNELS 3 Xrotation Yrotation Zrotation
										End Site
										{
											OFFSET 0.000000 0.000000 0.100006
										}
									}
								}
							}
						}
					}
				}
			}
		}
	}
	JOINT RightUpLeg
	{
		OFFSET -5.277740 0.811858 -0.967796
		CHANNELS 3 Xrotation Yrotation Zrotation
		JOINT RightUpLegRoll
		{
			OFFSET 0.000000 -0.000003 16.021400
			CHANNELS 3 Xrotation Yrotation Zrotation
			JOINT RightLeg
			{
				OFFSET 0.000000 0.000003 -19.840103
				CHANNELS 3 Xrotation Yrotation Zrotation
				JOINT RightLegRoll
				{
					OFFSET 0.000000 -0.000003 19.904999
					CHANNELS 3 Xrotation Yrotation Zrotation
					JOINT RightFoot
					{
						OFFSET 0.000000 -0.000003 16.567497
						CHANNELS 3 Xrotation Yrotation Zrotation
						JOINT RightToeBase
						{
							OFFSET 0.000000 -0.000002 13.849602
							CHANNELS 3 Xrotation Yrotation Zrotation
							End Site
							{
								OFFSET 0.005871 0.773116 6.707275
							}
						}
					}
				}
			}
		}
	}
	JOINT LeftUpLeg
	{
		OFFSET 5.277740 0.811858 -0.967796
		CHANNELS 3 Xrotation Yrotation Zrotation
		JOINT LeftUpLegRoll
		{
			OFFSET 0.000000 -0.000003 16.021500
			CHANNELS 3 Xrotation Yrotation Zrotation
			JOINT LeftLeg
			{
				OFFSET 0.000000 -0.000003 19.840004
				CHANNELS 3 Xrotation Yrotation Zrotation
				JOINT LeftLegRoll
				{
					OFFSET 0.000000 -0.000003 20.089005
					CHANNELS 3 Xrotation Yrotation Zrotation
					JOINT LeftFoot
					{
						OFFSET 0.000000 -0.000003 16.383499
						CHANNELS 3 Xrotation Yrotation Zrotation
						JOINT LeftToeBase
						{
							OFFSET 0.000000 -0.000002 13.849594
							CHANNELS 3 Xrotation Yrotation Zrotation
							End Site
							{
								OFFSET -0.026310 0.773116 6.707275
							}
						}
					}
				}
			}
		}
	}
}
MOTION
Frames: 4
Frame Time: 0.041667
52.986599 -1.978304 83.419998 0.298325 0.156514 1.464905 -2.949402 0.087673 -0.025454 -1.895969 0.175564 -0.045555 -0.250892 0.174976 -0.051575 24.710098 -1.833898 -0.276304 10.643302 0.554384 -0.346620 -15.054621 -30.565640 -16.966656 33.138558 -48.305369 61.890099 -0.000000 -0.000003 0.000001 -0.033068 3.639760 -1.990752 0.000003 0.000012 -3.011609 -5.000172 -7.999918 0.000012 -14.030011 28.355672 15.398311 25.112195 51.827919 -57.019785 0.000002 -0.000021 0.000004 11.371547 -3.671353 2.436318 0.000001 0.000001 3.000004 -5.000171 7.999936 -0.000000 -4.925053 -176.009740 2.779588 179.999991 -0.000005 -1.017993 170.548430 -0.930199 -0.415850 -0.000000 0.000001 0.222516 71.124980 6.876646 2.012683 25.456957 -7.355614 0.000011 -4.684977 174.611956 -1.732973 -0.000005 -0.000004 -1.012510 -8.148183 2.452401 0.364269 -0.000001 0.000002 -0.125019 70.010347 -6.862674 -2.123139 25.456957 7.355615 -0.000010 
53.013901 -1.911023 83.415001 0.339037 0.156298 1.466545 -2.957362 0.088205 -0.025447 -1.911889 0.176897 -0.045556 -0.266811 0.176307 -0.051568 24.702200 -1.861203 -0.259470 10.645949 0.578305 -0.333278 -15.055707 -30.569540 -16.968328 33.138251 -48.300393 61.891486 -0.000000 -0.000003 0.000000 -0.033069 3.639760 -1.990748 0.000004 0.000012 -3.011605 -5.000172 -7.999918 0.000009 -14.026692 28.354839 15.393382 25.110902 51.827492 -57.018884 0.000002 -0.000020 0.000005 11.368639 -3.671351 2.436126 -0.000001 -0.000000 2.999999 -5.000171 7.999937 0.000002 -4.909998 -176.002691 2.796058 179.999991 -0.000005 -1.019004 170.667439 -0.964069 -0.412423 0.000000 0.000002 0.215435 71.050606 6.878157 2.014029 25.456950 -7.355617 0.000012 -4.743266 174.618390 -1.720233 -0.000004 -0.000005 -1.012410 -8.161887 2.449328 0.364588 -0.000001 0.000002 -0.125012 70.011413 -6.862706 -2.122278 25.456953 7.355613 -0.000011 
53.096001 -1.743626 83.400192 0.373648 0.156353 1.467790 -2.964174 0.088618 -0.025439 -1.925509 0.178007 -0.045558 -0.280431 0.177417 -0.051562 24.695205 -1.888406 -0.241895 10.648094 0.602191 -0.319187 -15.055916 -30.573061 -16.968698 33.137493 -48.296387 61.892422 -0.000001 -0.000004 -0.000001 -0.033072 3.639760 -1.990751 0.000003 0.000012 -3.011610 -5.000171 -7.999919 0.000012 -14.023516 28.354190 15.388693 25.107830 51.828401 -57.016920 0.000002 -0.000020 0.000005 11.370043 -3.671353 2.436143 -0.000001 0.000000 3.000003 -5.000172 7.999936 0.000002 -4.899039 -175.996626 2.809269 179.999991 -0.000005 -1.020001 170.765780 -0.991981 -0.409265 0.000000 0.000002 0.209553 70.988991 6.879472 2.014956 25.456952 -7.355616 0.000012 -4.793259 174.624755 -1.709534 -0.000004 -0.000005 -1.012330 -8.173961 2.446601 0.364826 -0.000001 0.000002 -0.125005 70.012588 -6.862738 -2.121513 25.456955 7.355615 -0.000010 
53.069599 -1.790224 83.403488 0.401094 0.156717 1.468563 -2.969633 0.088893 -0.025431 -1.936420 0.178860 -0.045561 -0.291342 0.178268 -0.051557 24.689216 -1.915416 -0.223517 10.649641 0.625952 -0.304277 -15.055098 -30.576011 -16.967561 33.136270 -48.293573 61.892681 -0.000001 -0.000003 0.000002 -0.033073 3.639760 -1.990752 0.000003 0.000012 -3.011611 -5.000171 -7.999917 0.000008 -14.020575 28.353608 15.384310 25.102950 51.830645 -57.013775 0.000002 -0.000020 0.000006 11.376156 -3.671353 2.436387 0.000000 0.000000 3.000001 -5.000173 7.999937 -0.000002 -4.893148 -175.992596 2.818671 179.999991 -0.000005 -1.020001 170.839314 -1.013900 -0.406492 0.000000 0.000002 0.205114 70.942641 6.880467 2.015688 25.456953 -7.355616 0.000011 -4.833490 174.628075 -1.700967 -0.000005 -0.000005 -1.012250 -8.184116 2.444272 0.364969 -0.000001 0.000002 -0.124997 70.013879 -6.862776 -2.120939 25.456955 7.355616 -0.000011 
